<?xml version="1.0" encoding="UTF-8" standalone="no"?>
<svg
   version="1.0"
   width="100pt"
   height="100pt"
   viewBox="0 0 100 100"
   preserveAspectRatio="xMidYMid"
   id="svg1"
   sodipodi:docname="icon.svg"
   inkscape:version="1.3 (0e150ed6c4, 2023-07-21)"
   xmlns:inkscape="http://www.inkscape.org/namespaces/inkscape"
   xmlns:sodipodi="http://sodipodi.sourceforge.net/DTD/sodipodi-0.dtd"
   xmlns="http://www.w3.org/2000/svg"
   xmlns:svg="http://www.w3.org/2000/svg">
  <defs
     id="defs1" />
  <sodipodi:namedview
     id="namedview1"
     pagecolor="#ffffff"
     bordercolor="#000000"
     borderopacity="0.25"
     inkscape:showpageshadow="2"
     inkscape:pageopacity="0.0"
     inkscape:pagecheckerboard="0"
     inkscape:deskcolor="#d1d1d1"
     inkscape:document-units="pt"
     inkscape:zoom="2"
     inkscape:cx="-39.5"
     inkscape:cy="81.75"
     inkscape:window-width="2560"
     inkscape:window-height="1494"
     inkscape:window-x="-11"
     inkscape:window-y="1429"
     inkscape:window-maximized="1"
     inkscape:current-layer="svg1" />
  <path
     style="color:#000000;fill:#000000;-inkscape-stroke:none"
     d="m 55.434621,7.1352713 c 0.523733,0.1614278 0.841235,0.4864336 1.158203,1.2441407 0.350205,0.8371606 0.527168,2.043387 0.591797,3.070312 0.16944,5.567799 -2.984056,10.755777 -7.181641,14.6875 0.803453,-5.559707 0.839544,-11.010776 2.318359,-15.890625 0.315763,-0.8655592 0.832205,-1.7712036 1.41211,-2.351562 0.55076,-0.5511906 1.066666,-0.7601422 1.701172,-0.7597657 z m 23.373151,9.0409397 c 0.530923,1.075851 0.85663,2.571793 1.087891,3.896485 1.049209,9.678659 -1.001053,19.611534 -2.963082,24.256742 -1.962029,4.645209 -2.029319,4.932353 -2.130668,5.235445 -7.00056,-1.835101 -14.106252,-1.78943 -20.789063,-2.261718 2.430614,-8.858777 5.357364,-17.622186 10.742188,-24.777344 3.065178,-3.815608 6.979118,-7.226907 9.984806,-7.596243 3.005689,-0.369336 3.539088,0.175003 4.067928,1.246633 z M 50.676913,40.197655 c -0.751501,2.266444 -1.317995,4.511503 -1.931641,6.654297 -0.525533,-0.06549 -3.78847,-0.316282 -4.298933,-0.394415 2.503077,-5.341584 3.197652,-6.874412 4.342328,-12.176542 4.545351,-4.536734 4.9802,-4.633791 9.433999,-11.274185 C 62.79637,16.187643 61.920961,10.125021 61.114597,7.3403831 60.405739,4.0837617 58.391111,1.9026832 54.938527,1.9301932 l -0.02734,0.00195 -0.02539,0.00195 c -2.74668,0.2735724 -4.823055,1.9783239 -6.125,3.9707031 -1.299991,1.9893883 -1.976692,4.2997637 -2.622996,8.4475847 -0.646303,4.147822 -0.821329,10.32574 -2.0958,16.034872 -4.767132,2.347327 -9.95219,3.963151 -14.984375,3.347657 -3.394727,-0.489698 -6.446658,-3.591953 -6.292969,-7.007813 l 0.002,-0.0039 v -0.0059 c 0.214811,-5.532075 2.72539,-11.040777 5.188099,-13.656255 2.462709,-2.615479 3.962704,-3.6555303 5.360723,-4.2793326 2.858556,-1.2755005 6.796546,-0.2183842 7.689453,0.013671 4.461896,1.1595894 6.214981,-3.1396846 1.759767,-4.9276877 C 40.977532,3.1504521 35.194031,2.1687987 30.665089,4.3169115 28.187295,5.4921488 26.07632,7.3231329 24.467824,9.246599 l -0.0098,0.011719 -0.0078,0.00977 c -4.144012,5.114456 -7.080076,11.700085 -6.777322,18.589839 l 0.002,0.01953 v 0.02148 c 0.433166,6.425427 6.307668,10.988121 11.549903,11.145415 5.242235,0.157295 9.417699,-1.021129 13.385637,-2.561431 -0.859254,3.023333 -1.921181,5.974332 -3.259766,8.806641 -4.389721,-1.047524 -8.556433,-3.279606 -12.90625,-5.09375 -3.108356,-1.296378 -6.403977,3.05825 -1.251953,5.318308 3.745352,1.642988 11.623047,4.496094 11.623047,4.496094 -1.133134,1.86756 -2.383666,3.64524 -3.75,5.333985 -0.637635,-0.990517 -1.20423,-1.924788 -2.025391,-2.955079 -1.360822,-1.707391 -3.194887,-3.34295 -5.836102,-3.659165 -2.641215,-0.316215 -4.648283,0.948205 -6.027179,2.436465 -1.281667,1.374861 -2.221491,3.010489 -3.124999,4.644528 -0.644543,1.165689 -1.547228,3.241683 -1.740236,5.443356 -0.177153,2.020811 0.299535,4.434921 2.232422,5.935547 1.999684,1.552485 4.540531,1.649371 6.966792,1.208978 2.178506,-0.461389 4.165471,-1.461506 5.816406,-2.458984 l 0.01367,-0.0078 0.01367,-0.0098 c 1.23903,-0.778625 2.24417,-1.723254 3.28125,-2.640625 2.500704,2.997615 8.279962,5.63244 11.595807,7.503789 -0.762824,6.495219 -1.663262,13.82821 1.697266,20.423829 2.606363,5.457774 9.002438,7.930803 14.634765,6.427734 7.981762,-1.791514 14.695695,-7.313126 18.093055,-12.900347 3.39736,-5.587221 4.301626,-11.429219 1.826842,-16.310587 1.381545,-1.153731 2.73143,-2.484157 3.726563,-4.140625 1.260318,-2.097886 1.956696,-4.713419 1.197265,-7.414062 l -0.002,-0.0098 -0.0039,-0.0098 c -0.934067,-3.18468 -3.583368,-4.60417 -5.798828,-5.658203 4.15747,-9.707096 6.449682,-20.393505 5.501953,-31.050782 l -0.0039,-0.04883 -0.0059,-0.04687 C 84.84247,18.299595 84.483042,16.22568 83.61239,14.281445 82.741737,12.33721 81.245043,10.452251 77.402921,9.3743834 73.5608,8.296516 69.189625,11.569093 67.362256,12.928784 c -4.458253,3.317253 -8.945908,9.953405 -10.885535,13.38928 -3.266677,5.786628 -5.799808,13.879591 -5.799808,13.879591 z m -8.617292,11.093866 c 0.931331,0.173323 4.625567,0.465845 5.562604,0.591681 -1.000761,4.415581 -1.813173,8.861772 -2.523437,13.318359 -2.307038,-1.481829 -7.138303,-3.447474 -8.871199,-5.593634 2.212793,-2.589351 4.158756,-5.378011 5.832032,-8.316406 z m 30.31651,3.023321 c -1.007215,1.836391 -2.092589,3.571593 -3.302734,5.121094 -3.30786,-1.188729 -7.252689,-2.352162 -10.321743,-0.817765 -3.069054,1.534398 -4.083593,3.890925 -4.010288,6.065816 0.04752,1.409923 0.652365,2.721096 1.509765,3.884766 -2.125202,0.215661 -4.292199,-0.135461 -6.378906,-0.896485 0.744059,-5.078114 2.83455,-15.049669 2.881837,-15.236328 14.037286,0.687882 17.065158,1.290014 19.622069,1.878902 z m -47.88487,-0.611211 c 0.827148,-0.254415 1.712544,0.879243 2.511719,1.894531 0.8199,1.041617 1.591293,2.407123 2.535156,3.685547 L 28.69048,60.02199 c -2.581488,2.248393 -6.355345,4.463485 -8.720703,3.220703 -0.49856,-0.261948 -0.538311,-0.842867 -0.546875,-1.386719 -0.01368,-0.868831 0.413938,-2.091109 0.886719,-2.990234 1.260273,-2.39676 2.455117,-4.631064 4.18164,-5.162109 z m 52.925886,2.245977 c 0.762222,0.358565 1.592594,0.664509 2.121094,1.144531 0.832252,0.755913 1.182995,1.407341 1.050781,2.425781 -0.331113,1.76599 -1.699584,3.402792 -3.259766,4.716797 -1.089901,-1.005587 -2.235898,-1.878144 -3.457031,-2.605468 1.324191,-1.889973 2.494149,-3.805445 3.544922,-5.681641 z m -14.691406,7.191406 c 0.887266,0.07251 2.170898,0.448242 2.566406,0.640625 -1.12568,1.075396 -2.303618,2.005113 -3.544922,2.753906 -0.581087,-0.317141 -1.22303,-0.651037 -1.546875,-1.113281 -0.445578,-0.636001 -0.541763,-0.951468 -0.167969,-1.576172 0.165987,-0.277405 0.403103,-0.444862 0.890625,-0.582031 0.486663,-0.136926 1.169108,-0.174828 1.802735,-0.123047 z m 7.910156,2.5625 c 0.751405,0.410585 1.466794,0.847928 2.125,1.339844 -1.281101,0.437347 -2.636331,0.557993 -4.015625,0.642578 0.669018,-0.625517 1.275807,-1.307375 1.890625,-1.982422 z m 5.449219,5.476563 c 0.71456,1.663801 0.974052,3.455204 0.599609,5.359375 -0.467221,2.375982 -1.695508,4.788321 -3.214844,6.658203 l -0.002,0.0039 -0.002,0.002 c -4.054312,5.031396 -9.736908,9.188254 -16.015531,9.669881 h -0.01758 l -0.01563,0.002 c -3.371835,0.322518 -6.563325,-2.281785 -7.613281,-5.552734 l -0.0039,-0.01367 -0.0059,-0.01563 c -1.499875,-4.41665 -1.113742,-9.360671 -0.564453,-14.355469 4.205007,1.274809 8.816909,1.245107 12.921875,-0.6875 4.613346,1.263404 9.606188,0.822925 13.933594,-1.070312 z"
     id="path2"
     sodipodi:nodetypes="cscccscsccccccsccccsscccscccccccsszssccccccccssccscssssscccccccccscccccccscczccccccccssccccsscssssscsccccsccsssscccccsccccccccccccc" />
</svg>
